# xmcd CD database file
#
# Track frame offsets:
#	150
#	14565
#	25135
#	40570
#	52157
#	66015
#	78875
#	91075
#	106357
#	119790
#	135440
#	146955
#
# Disc length: 2106 seconds
#
# Revision: 0
# Processed by: cddbd v1.5.1PL0 Copyright (c) Steve Scherf et al.
# Submitted via: CDex 1.40Release
#
DISCID=a108380c
DTITLE=Lucky Stars -  Hollywood and Western
DYEAR=2000
DGENRE=Country
TTITLE0=Everybody's Fool
TTITLE1=Chisel to My Heart
TTITLE2=Look What the Cat Dragged In
TTITLE3=Hot Potato
TTITLE4=Get off Your High Horse
TTITLE5=A Fella Named Jack
TTITLE6=All Shapes and Sizes
TTITLE7=White Lie Blues
TTITLE8=Tennessee Tango
TTITLE9=Been Betrayed Blues
TTITLE10=Sugar Mama
TTITLE11=Honky Tonk Bound
EXTD=YEAR: 2000 ID3G: 2
EXTT0=
EXTT1=
EXTT2=
EXTT3=
EXTT4=
EXTT5=
EXTT6=
EXTT7=
EXTT8=
EXTT9=
EXTT10=
EXTT11=
PLAYORDER=
